<svg width="83" height="98" viewBox="0 0 83 98" fill="none" xmlns="http://www.w3.org/2000/svg">
<g clip-path="url(#clip0_0_8065)">
<path d="M70.4163 98.0034H9.10267C8.49999 98.01 7.9025 97.9015 7.3489 97.6849C6.79529 97.4684 6.29791 97.1486 5.88897 96.7462C5.48002 96.3439 5.16863 95.868 4.97495 95.3493C4.78127 94.8306 4.70962 94.2808 4.76465 93.7354L12.2741 4.26799C12.391 3.11531 12.9719 2.04239 13.9055 1.25482C14.839 0.467249 16.0596 0.0204252 17.3332 -3.36243e-05H78.6469C79.2497 -0.00718102 79.8475 0.100944 80.4014 0.317328C80.9553 0.533711 81.4529 0.853515 81.8619 1.25598C82.271 1.65845 82.5824 2.13459 82.7758 2.65349C82.9693 3.17239 83.0405 3.72246 82.9849 4.26799L75.4755 93.7354C75.3577 94.8878 74.7766 95.9602 73.8432 96.7477C72.9098 97.5351 71.6897 97.9822 70.4163 98.0034Z" fill="#407BFF"/>
<path opacity="0.5" d="M70.4163 98.0034H9.10267C8.49999 98.01 7.9025 97.9015 7.3489 97.6849C6.79529 97.4684 6.29791 97.1486 5.88897 96.7462C5.48002 96.3439 5.16863 95.868 4.97495 95.3493C4.78127 94.8306 4.70962 94.2808 4.76465 93.7354L12.2741 4.26799C12.391 3.11531 12.9719 2.04239 13.9055 1.25482C14.839 0.467249 16.0596 0.0204252 17.3332 -3.36243e-05H78.6469C79.2497 -0.00718102 79.8475 0.100944 80.4014 0.317328C80.9553 0.533711 81.4529 0.853515 81.8619 1.25598C82.271 1.65845 82.5824 2.13459 82.7758 2.65349C82.9693 3.17239 83.0405 3.72246 82.9849 4.26799L75.4755 93.7354C75.3577 94.8878 74.7766 95.9602 73.8432 96.7477C72.9098 97.5351 71.6897 97.9822 70.4163 98.0034Z" fill="white"/>
<path d="M69.5065 98.0034H8.189C7.58632 98.01 6.98884 97.9015 6.43523 97.6849C5.88163 97.4684 5.38425 97.1486 4.9753 96.7462C4.56636 96.3439 4.25496 95.868 4.06128 95.3493C3.8676 94.8306 3.79596 94.2808 3.85098 93.7354L11.3642 4.26799C11.4812 3.11474 12.0627 2.04134 12.997 1.25369C13.9313 0.466041 15.1528 0.0195887 16.4271 -3.36243e-05H77.7408C78.3436 -0.00718102 78.9414 0.100944 79.4953 0.317328C80.0492 0.533711 80.5468 0.853515 80.9558 1.25598C81.3649 1.65845 81.6763 2.13459 81.8697 2.65349C82.0632 3.17239 82.1344 3.72246 82.0788 4.26799L74.5694 93.7354C74.4523 94.8886 73.8709 95.962 72.9365 96.7497C72.0022 97.5373 70.7808 97.9838 69.5065 98.0034Z" fill="#407BFF"/>
<path opacity="0.7" d="M69.5065 98.0034H8.189C7.58632 98.01 6.98884 97.9015 6.43523 97.6849C5.88163 97.4684 5.38425 97.1486 4.9753 96.7462C4.56636 96.3439 4.25496 95.868 4.06128 95.3493C3.8676 94.8306 3.79596 94.2808 3.85098 93.7354L11.3642 4.26799C11.4812 3.11474 12.0627 2.04134 12.997 1.25369C13.9313 0.466041 15.1528 0.0195887 16.4271 -3.36243e-05H77.7408C78.3436 -0.00718102 78.9414 0.100944 79.4953 0.317328C80.0492 0.533711 80.5468 0.853515 80.9558 1.25598C81.3649 1.65845 81.6763 2.13459 81.8697 2.65349C82.0632 3.17239 82.1344 3.72246 82.0788 4.26799L74.5694 93.7354C74.4523 94.8886 73.8709 95.962 72.9365 96.7497C72.0022 97.5373 70.7808 97.9838 69.5065 98.0034Z" fill="white"/>
<path d="M8.30981 96.5796C7.9078 96.585 7.50904 96.5135 7.1395 96.3695C6.76997 96.2256 6.43795 96.0125 6.1651 95.7442C5.89225 95.4758 5.68467 95.1582 5.55591 94.8121C5.42715 94.466 5.38009 94.0991 5.41779 93.7354L12.829 5.45509C12.9054 4.68638 13.292 3.97052 13.9145 3.44539C14.537 2.92026 15.3513 2.62301 16.2005 2.61089H77.5142C77.9162 2.60542 78.315 2.67699 78.6845 2.82094C79.0541 2.96488 79.3861 3.17797 79.6589 3.44631C79.9318 3.71465 80.1394 4.03223 80.2681 4.37834C80.3969 4.72446 80.4439 5.09135 80.4062 5.45509L72.995 93.7354C72.9187 94.5035 72.5326 95.2189 71.9109 95.7439C71.2892 96.269 70.4759 96.5666 69.6273 96.5796H8.30981Z" fill="#407BFF"/>
<path opacity="0.2" d="M69.1931 17.4598H25.3145C25.0762 17.4627 24.8398 17.4199 24.6208 17.3343C24.4018 17.2487 24.2051 17.1222 24.0434 16.963C23.8817 16.8038 23.7588 16.6155 23.6824 16.4102C23.6061 16.205 23.5782 15.9875 23.6005 15.7718V15.7718C23.6477 15.3171 23.8773 14.8941 24.2457 14.5835C24.614 14.2728 25.0953 14.0962 25.5977 14.0872H69.4763C69.7145 14.0839 69.9507 14.1262 70.1697 14.2114C70.3887 14.2965 70.5855 14.4227 70.7472 14.5817C70.909 14.7406 71.032 14.9288 71.1084 15.1338C71.1847 15.3389 71.2126 15.5563 71.1903 15.7718V15.7718C71.1456 16.2276 70.9169 16.6523 70.5481 16.964C70.1793 17.2757 69.6966 17.4523 69.1931 17.4598V17.4598Z" fill="black"/>
<path opacity="0.3" d="M50.4743 1.73946H43.3878C43.3291 1.74016 43.2709 1.72965 43.217 1.70862C43.163 1.68758 43.1146 1.65649 43.0747 1.61736C43.0349 1.57822 43.0045 1.53192 42.9856 1.48144C42.9666 1.43096 42.9596 1.37743 42.9649 1.32432V1.32432C42.9768 1.21261 43.0333 1.10872 43.1238 1.03225C43.2142 0.955782 43.3322 0.912007 43.4557 0.909183H50.546C50.6044 0.908967 50.6622 0.919831 50.7156 0.941078C50.7691 0.962325 50.8171 0.993488 50.8566 1.03257C50.896 1.07165 50.9261 1.11779 50.9447 1.16803C50.9634 1.21827 50.9704 1.2715 50.9651 1.32432V1.32432C50.9548 1.4366 50.8988 1.54135 50.808 1.61812C50.7173 1.69488 50.5983 1.73814 50.4743 1.73946Z" fill="#407BFF"/>
<path d="M25.1107 15.7718C25.1734 15.175 25.0969 14.573 24.8862 14.005C24.6754 13.437 24.3352 12.9157 23.8876 12.4754C23.4401 12.035 22.8953 11.6854 22.289 11.4494C21.6826 11.2134 21.0282 11.0963 20.3687 11.1058H64.9193C65.5788 11.0963 66.2332 11.2134 66.8395 11.4494C67.4459 11.6854 67.9907 12.035 68.4382 12.4754C68.8857 12.9157 69.226 13.437 69.4368 14.005C69.6475 14.573 69.724 15.175 69.6613 15.7718H25.1107Z" fill="#F0F0F0"/>
<path d="M20.38 11.1058C18.9866 11.1253 17.6505 11.6128 16.6292 12.4744C15.6079 13.336 14.9737 14.5106 14.8489 15.7718L10.2844 70.1412C10.1604 71.4022 9.52704 72.5767 8.50636 73.4384C7.48569 74.3 6.15004 74.7876 4.75708 74.8072H49.3077C50.701 74.7877 52.0371 74.3002 53.0584 73.4386C54.0797 72.5771 54.7139 71.4024 54.8387 70.1412L59.4033 15.7718C59.5272 14.5109 60.1606 13.3363 61.1813 12.4747C62.202 11.613 63.5376 11.1254 64.9306 11.1058H20.38Z" fill="white"/>
<path d="M44.5619 70.1411C44.4991 70.7378 44.5756 71.3399 44.7864 71.9079C44.9971 72.4759 45.3374 72.9971 45.7849 73.4375C46.2325 73.8779 46.7772 74.2275 47.3836 74.4635C47.99 74.6995 48.6443 74.8166 49.3039 74.8071H4.75331C4.09375 74.8166 3.43941 74.6995 2.83304 74.4635C2.22667 74.2275 1.68192 73.8779 1.23437 73.4375C0.78683 72.9971 0.446562 72.4759 0.235811 71.9079C0.0250592 71.3399 -0.0514346 70.7378 0.0113195 70.1411H44.5619Z" fill="#F0F0F0"/>
<path d="M18.4847 69.0672C18.6546 67.0808 17.9675 65.4751 15.7852 65.4751H50.0892C52.2714 65.4751 53.9137 67.29 52.7924 69.0672H18.4847Z" fill="#E0E0E0"/>
<path d="M44.5619 70.1412C44.6832 68.8783 45.3154 67.7013 46.3364 66.8375C47.3573 65.9737 48.6944 65.4847 50.0892 65.4648H5.53861C4.14565 65.4844 2.81001 65.9721 1.78933 66.8337C0.768653 67.6953 0.135259 68.8699 0.011322 70.1309L44.5619 70.1412Z" fill="#F0F0F0"/>
<path d="M65.6253 83.6211H14.4865C14.3134 83.6232 14.1418 83.5922 13.9828 83.5302C13.8237 83.4681 13.6808 83.3763 13.5633 83.2608C13.4459 83.1453 13.3564 83.0087 13.3008 82.8597C13.2452 82.7108 13.2247 82.5529 13.2406 82.3963V82.3963C13.274 82.0658 13.4403 81.758 13.7078 81.532C13.9753 81.306 14.3252 81.1777 14.6903 81.1714H65.8329C66.0057 81.1698 66.1769 81.2012 66.3354 81.2634C66.494 81.3257 66.6365 81.4176 66.7535 81.533C66.8706 81.6484 66.9597 81.7849 67.0151 81.9336C67.0705 82.0823 67.0909 82.2399 67.075 82.3963V82.3963C67.0416 82.7268 66.8753 83.0345 66.6078 83.2605C66.3403 83.4865 65.9904 83.6149 65.6253 83.6211Z" fill="white"/>
<path d="M39.8011 89.5086H13.9919C13.8187 89.5112 13.6468 89.4806 13.4875 89.4187C13.3282 89.3569 13.185 89.2651 13.0674 89.1495C12.9498 89.0339 12.8604 88.897 12.805 88.7478C12.7496 88.5986 12.7295 88.4405 12.746 88.2838V88.2838C12.7794 87.9532 12.9458 87.6455 13.2133 87.4195C13.4808 87.1935 13.8306 87.0651 14.1958 87.0589H40.0049C40.178 87.0568 40.3496 87.0878 40.5086 87.1499C40.6677 87.2119 40.8106 87.3037 40.9281 87.4192C41.0455 87.5347 41.135 87.6713 41.1906 87.8203C41.2462 87.9692 41.2667 88.1271 41.2508 88.2838V88.2838C41.2174 88.6143 41.0511 88.922 40.7836 89.148C40.5161 89.374 40.1662 89.5024 39.8011 89.5086V89.5086Z" fill="white"/>
<path d="M57.6704 89.5085H47.2161C47.0428 89.5112 46.8709 89.4806 46.7116 89.4187C46.5523 89.3568 46.4092 89.2651 46.2916 89.1494C46.1739 89.0338 46.0845 88.897 46.0291 88.7478C45.9738 88.5986 45.9537 88.4405 45.9702 88.2837C46.0036 87.9532 46.1699 87.6455 46.4374 87.4195C46.7049 87.1935 47.0548 87.0651 47.4199 87.0589H57.8742C58.0471 87.0573 58.2185 87.0887 58.3772 87.1509C58.536 87.2132 58.6786 87.3049 58.796 87.4203C58.9134 87.5357 59.0028 87.6721 59.0587 87.8208C59.1145 87.9695 59.1354 88.1272 59.1201 88.2837C59.0867 88.6142 58.9204 88.922 58.6529 89.148C58.3854 89.3739 58.0355 89.5023 57.6704 89.5085V89.5085Z" fill="white"/>
<path d="M68.1246 66.2127L65.4554 66.5936C65.3903 66.3689 65.2871 66.1547 65.1495 65.9589C65.0133 65.8096 64.845 65.687 64.655 65.5986L64.4964 67.4616C65.9059 67.8115 66.8347 68.1798 67.2827 68.5663C67.5738 68.8176 67.7966 69.127 67.9335 69.4699C68.0705 69.8129 68.1178 70.1801 68.0718 70.5425C68.0384 70.9996 67.8829 71.4424 67.6187 71.8325C67.3702 72.2108 67.0448 72.5427 66.6597 72.8104C66.3042 73.0625 65.903 73.2564 65.4742 73.3833C64.9828 73.5114 64.4752 73.5818 63.964 73.5926L63.8621 74.8071H62.8654L62.9673 73.5926C62.3998 73.5589 61.8398 73.4562 61.3023 73.2872C60.8997 73.1508 60.5321 72.9406 60.2226 72.6697C59.946 72.4287 59.724 72.1408 59.5694 71.8223C59.4101 71.4723 59.312 71.1019 59.2787 70.7244L62.1669 70.4225C62.1833 70.7435 62.2733 71.0578 62.4312 71.3454C62.5997 71.5658 62.8324 71.7393 63.1032 71.8463L63.292 69.5716C62.6146 69.4137 61.9529 69.2048 61.3137 68.9472C60.9109 68.752 60.5762 68.4585 60.3471 68.0997C60.0769 67.6681 59.9657 67.1691 60.03 66.6759C60.0553 66.31 60.1605 65.9522 60.3394 65.6236C60.5183 65.2949 60.7673 65.0019 61.072 64.7615C61.8351 64.2024 62.7876 63.9005 63.7677 63.9072L63.8206 63.269H64.8551L64.8022 63.9072C65.6519 63.9058 66.4808 64.1457 67.1732 64.5934C67.7044 65.0043 68.0444 65.583 68.1246 66.2127ZM63.6205 65.5677C63.3723 65.6281 63.1458 65.7463 62.9636 65.9108C62.8335 66.0415 62.7563 66.2084 62.7446 66.3843C62.7247 66.5588 62.7742 66.7341 62.8843 66.8783C63.0412 67.044 63.2489 67.1634 63.4808 67.2214L63.6205 65.5677ZM64.1226 71.9115C64.4649 71.8595 64.7834 71.7189 65.0401 71.5066C65.2305 71.3405 65.3484 71.1176 65.3723 70.8788C65.3913 70.6772 65.3237 70.4767 65.1835 70.3195C64.9406 70.0913 64.6339 69.9277 64.2963 69.8461L64.1226 71.9115Z" fill="white"/>
<path d="M17.8316 26.2395H19.1039L18.7905 29.9655H17.522L17.8316 26.2395Z" fill="#407BFF"/>
<path d="M20.0213 26.2395H21.2031L22.5736 28.298L22.7472 26.2395H23.9403L23.6269 29.9655H22.4339L21.0709 27.9069L20.8972 29.9655H19.708L20.0213 26.2395Z" fill="#407BFF"/>
<path d="M24.3782 26.2395H25.7034L26.4019 28.9225L27.5345 26.2395H28.8182L26.9984 29.9655H25.6279L24.3782 26.2395Z" fill="#407BFF"/>
<path d="M28.7238 28.1059C28.7413 27.5707 28.9846 27.0622 29.4034 26.6855C29.8445 26.3343 30.4184 26.1523 31.0042 26.1777C31.2844 26.1581 31.566 26.1923 31.8307 26.278C32.0954 26.3637 32.3373 26.499 32.5408 26.6752C32.7185 26.8671 32.8492 27.0912 32.9241 27.3325C32.9989 27.5739 33.0163 27.827 32.975 28.075C32.9589 28.4507 32.8451 28.8175 32.6427 29.1454C32.4614 29.4214 32.2002 29.6469 31.8876 29.7973C31.5284 29.9608 31.1302 30.0409 30.7286 30.0306C30.3388 30.0441 29.951 29.9748 29.5959 29.8282C29.2989 29.689 29.0592 29.4664 28.9126 29.1935C28.7421 28.8532 28.6769 28.4773 28.7238 28.1059V28.1059ZM29.9923 28.1059C29.9372 28.3858 29.9948 28.6745 30.1547 28.919C30.2271 29.0009 30.3201 29.0658 30.4259 29.1082C30.5317 29.1506 30.6472 29.1693 30.7625 29.1626C30.8835 29.1678 31.0042 29.149 31.1163 29.1075C31.2285 29.066 31.3293 29.0029 31.4119 28.9224C31.6118 28.6712 31.7165 28.3678 31.7102 28.0579C31.7613 27.7903 31.7007 27.515 31.5403 27.2859C31.4667 27.2046 31.3728 27.1403 31.2665 27.0986C31.1601 27.0568 31.0443 27.0387 30.9287 27.0457C30.809 27.0429 30.6901 27.0635 30.5801 27.1062C30.47 27.1488 30.3713 27.2124 30.2906 27.2928C30.095 27.5277 29.9901 27.8147 29.9923 28.1093V28.1059Z" fill="#407BFF"/>
<path d="M33.8622 26.2395H35.1308L34.8212 29.9655H33.5489L33.8622 26.2395Z" fill="#407BFF"/>
<path d="M38.5853 28.4421L39.6689 28.7474C39.5853 29.0057 39.4453 29.246 39.2574 29.4542C39.0886 29.6415 38.8722 29.7887 38.6268 29.883C38.3342 29.9893 38.0206 30.0396 37.7056 30.0306C37.337 30.0429 36.9698 29.982 36.6296 29.8521C36.3346 29.7182 36.0959 29.5 35.95 29.2312C35.757 28.8801 35.6834 28.4848 35.7386 28.0955C35.7494 27.5614 35.986 27.0516 36.3993 26.6717C36.8317 26.3268 37.3955 26.1495 37.9699 26.1777C38.3911 26.1524 38.8098 26.2524 39.163 26.4624C39.464 26.682 39.671 26.9902 39.7482 27.3339L38.6155 27.5603C38.5966 27.4735 38.5622 27.39 38.5136 27.3133C38.4546 27.2273 38.3711 27.1573 38.272 27.1109C38.1669 27.0618 38.0502 27.0371 37.9322 27.0388C37.7977 27.035 37.6644 27.0619 37.5443 27.1171C37.4243 27.1722 37.3214 27.2538 37.245 27.3545C37.0937 27.5735 37.0126 27.8266 37.0109 28.0852C36.9526 28.3747 37.0003 28.6736 37.1469 28.9361C37.213 29.0131 37.2988 29.0743 37.3968 29.1144C37.4948 29.1544 37.6021 29.1721 37.7094 29.166C37.8127 29.172 37.9163 29.1587 38.0138 29.1268C38.1112 29.095 38.2004 29.0452 38.2757 28.9807C38.4248 28.8262 38.5309 28.6415 38.5853 28.4421V28.4421Z" fill="#407BFF"/>
<path d="M40.492 26.2395H43.8899L43.8257 27.0355H41.7001L41.651 27.629H43.6105L43.5463 28.3872H41.5755L41.5113 29.1215H43.7011L43.6294 29.9655H40.1711L40.492 26.2395Z" fill="#407BFF"/>
<path d="M53.9439 34.7755H17.118L17.1973 33.8457H54.0195L53.9439 34.7755Z" fill="#407BFF"/>
<path d="M53.9439 34.7755H17.118L16.8801 37.6163H53.7023L53.9439 34.7755Z" fill="#F0F0F0"/>
<path d="M53.4645 40.4604H16.6423L16.4007 43.3012H53.2266L53.4645 40.4604Z" fill="#F0F0F0"/>
<path d="M52.9888 46.1421H16.1628L15.925 48.9829H52.7509L52.9888 46.1421Z" fill="#F0F0F0"/>
<path d="M52.5093 51.827H15.6871L15.4492 54.6678H52.2714L52.5093 51.827Z" fill="#F0F0F0"/>
<path d="M51.9543 58.4383H15.1321L15.2076 57.5085H52.0336L51.9543 58.4383Z" fill="#407BFF"/>
<path d="M47.7446 17.4598H55.3975L55.0502 21.6078H47.3935L47.7446 17.4598Z" fill="#F0F0F0"/>
</g>
<defs>
<clipPath id="clip0_0_8065">
<rect width="83" height="98" fill="white"/>
</clipPath>
</defs>
</svg>
