<svg width="110" height="110" viewBox="0 0 110 110" fill="none" xmlns="http://www.w3.org/2000/svg">
<path d="M67.8538 10.2068L58.3964 19.6642C67.1474 20.4491 74.9566 24.4125 80.7252 30.4166H93.9107V16.2894C84.6102 6.98895 71.9742 1.02411 57.9254 0.317749L67.8538 10.2068Z" fill="url(#paint0_linear_0_3084)"/>
<path d="M99.9932 65.0677L110 55.0609C110 40.9336 104.624 28.0622 95.8727 18.3301V32.3788H82.4911C87.6319 38.5399 90.6928 46.4668 90.6928 55.1001C90.6928 55.3356 90.6928 55.5318 90.6928 55.728L99.9932 65.0677Z" fill="url(#paint1_linear_0_3084)"/>
<path d="M32.3787 14.3273V27.7089C38.5397 22.5681 46.4667 19.5073 55.1 19.5073C55.3354 19.5073 55.5317 19.5073 55.7279 19.5073L65.0283 10.2068L55.0608 0.200027C40.9335 0.200027 28.062 5.57623 18.3299 14.3273H32.3787Z" fill="url(#paint2_linear_0_3084)"/>
<path d="M10.2068 42.3464L19.6642 51.8038C20.449 43.0527 24.4125 35.2435 30.4166 29.4749V16.2895H16.2893C6.98891 25.5899 1.02408 38.2259 0.317719 52.2747L10.2068 42.3464Z" fill="url(#paint3_linear_0_3084)"/>
<path d="M77.8605 95.8335V82.4519C71.6995 87.5926 63.7726 90.6536 55.1392 90.6536C54.9038 90.6536 54.7076 90.6536 54.5114 90.6536L45.1324 99.9932L55.1392 110C69.2665 110 82.138 104.624 91.8701 95.8728H77.8605V95.8335Z" fill="url(#paint4_linear_0_3084)"/>
<path d="M99.9933 67.8145L90.5359 58.3571C89.751 67.1081 85.7876 74.9173 79.7835 80.686V93.8714H93.9107C103.211 84.571 109.176 71.9349 109.882 57.8862L99.9933 67.8145Z" fill="url(#paint5_linear_0_3084)"/>
<path d="M14.3665 77.8214H27.7481C22.6074 71.6603 19.5465 63.7334 19.5465 55.1001C19.5465 54.8646 19.5465 54.6684 19.5465 54.433L10.2068 45.1325L0.199982 55.1393C0.199982 69.2666 5.57618 82.138 14.3272 91.8701V77.8214H14.3665Z" fill="url(#paint6_linear_0_3084)"/>
<path d="M42.3462 99.9934L51.8036 90.536C43.0526 89.7511 35.2434 85.7876 29.4748 79.7836H16.2893V93.9108C25.5898 103.211 38.2258 109.176 52.2746 109.882L42.3462 99.9934Z" fill="url(#paint7_linear_0_3084)"/>
<path d="M25.4944 56.9448C25.7824 57.5448 26.3944 57.8448 27.3304 57.8448C27.8824 57.8448 28.3924 57.6528 28.8604 57.2688L31.0384 59.1048C30.1384 60.0768 28.8664 60.5628 27.2224 60.5628C25.6864 60.5628 24.4504 60.1188 23.5144 59.2308C22.5904 58.3308 22.1284 57.2028 22.1284 55.8468C22.1284 54.4788 22.5784 53.3388 23.4784 52.4268C24.3904 51.5148 25.5364 51.0588 26.9164 51.0588C28.2844 51.0588 29.4064 51.5088 30.2824 52.4088C31.1704 53.2968 31.6144 54.4188 31.6144 55.7748C31.6144 56.1708 31.5664 56.5608 31.4704 56.9448H25.4944ZM25.4404 54.8028H28.4644C28.2604 54.0828 27.7744 53.7228 27.0064 53.7228C26.2264 53.7228 25.7044 54.0828 25.4404 54.8028ZM32.7767 56.4048V53.2728H39.9767V56.4048H32.7767ZM46.0067 60.5628C44.6267 60.5628 43.4807 60.1128 42.5687 59.2128C41.6567 58.3008 41.2007 57.1668 41.2007 55.8108C41.2007 54.4548 41.6567 53.3268 42.5687 52.4268C43.4807 51.5148 44.6267 51.0588 46.0067 51.0588C46.8947 51.0588 47.7047 51.2748 48.4367 51.7068C49.1807 52.1268 49.7507 52.6968 50.1467 53.4168L47.3387 55.0188C47.0387 54.5148 46.5947 54.2628 46.0067 54.2628C45.5867 54.2628 45.2327 54.4128 44.9447 54.7128C44.6687 55.0008 44.5307 55.3668 44.5307 55.8108C44.5307 56.2548 44.6687 56.6268 44.9447 56.9268C45.2327 57.2148 45.5867 57.3588 46.0067 57.3588C46.6307 57.3588 47.0747 57.1008 47.3387 56.5848L50.1467 58.2048C49.7507 58.9368 49.1807 59.5128 48.4367 59.9328C47.7047 60.3528 46.8947 60.5628 46.0067 60.5628ZM56.7078 51.0588C57.6918 51.0588 58.4778 51.4008 59.0658 52.0848C59.6658 52.7568 59.9658 53.7648 59.9658 55.1088V60.3108H56.6358V55.4688C56.6358 54.6648 56.2638 54.2628 55.5198 54.2628C55.1238 54.2628 54.8178 54.3888 54.6018 54.6408C54.3978 54.8928 54.2958 55.2408 54.2958 55.6848V60.3108H50.9658V47.7108H54.2958V52.1928C54.8478 51.4368 55.6518 51.0588 56.7078 51.0588ZM64.2542 56.9448C64.5422 57.5448 65.1542 57.8448 66.0902 57.8448C66.6422 57.8448 67.1522 57.6528 67.6202 57.2688L69.7982 59.1048C68.8982 60.0768 67.6262 60.5628 65.9822 60.5628C64.4462 60.5628 63.2102 60.1188 62.2742 59.2308C61.3502 58.3308 60.8882 57.2028 60.8882 55.8468C60.8882 54.4788 61.3382 53.3388 62.2382 52.4268C63.1502 51.5148 64.2962 51.0588 65.6762 51.0588C67.0442 51.0588 68.1662 51.5088 69.0422 52.4088C69.9302 53.2968 70.3742 54.4188 70.3742 55.7748C70.3742 56.1708 70.3262 56.5608 70.2302 56.9448H64.2542ZM64.2002 54.8028H67.2242C67.0202 54.0828 66.5342 53.7228 65.7662 53.7228C64.9862 53.7228 64.4642 54.0828 64.2002 54.8028ZM75.8016 60.5628C74.4216 60.5628 73.2756 60.1128 72.3636 59.2128C71.4516 58.3008 70.9956 57.1668 70.9956 55.8108C70.9956 54.4548 71.4516 53.3268 72.3636 52.4268C73.2756 51.5148 74.4216 51.0588 75.8016 51.0588C76.6896 51.0588 77.4996 51.2748 78.2316 51.7068C78.9756 52.1268 79.5456 52.6968 79.9416 53.4168L77.1336 55.0188C76.8336 54.5148 76.3896 54.2628 75.8016 54.2628C75.3816 54.2628 75.0276 54.4128 74.7396 54.7128C74.4636 55.0008 74.3256 55.3668 74.3256 55.8108C74.3256 56.2548 74.4636 56.6268 74.7396 56.9268C75.0276 57.2148 75.3816 57.3588 75.8016 57.3588C76.4256 57.3588 76.8696 57.1008 77.1336 56.5848L79.9416 58.2048C79.5456 58.9368 78.9756 59.5128 78.2316 59.9328C77.4996 60.3528 76.6896 60.5628 75.8016 60.5628ZM89.9407 60.3108H86.2507L84.0907 56.7108V60.3108H80.7607V47.7108H84.0907V54.8028L85.9807 51.3108H89.7607L87.0247 55.8108L89.9407 60.3108Z" fill="#1D4ED8"/>
<defs>
<linearGradient id="paint0_linear_0_3084" x1="65.514" y1="1.86562" x2="87.1436" y2="34.6191" gradientUnits="userSpaceOnUse">
<stop stop-color="#2470F4"/>
<stop offset="0.5722" stop-color="#249DF4"/>
<stop offset="1" stop-color="#24BAF4"/>
</linearGradient>
<linearGradient id="paint1_linear_0_3084" x1="106.043" y1="66.688" x2="83.1779" y2="2.4171" gradientUnits="userSpaceOnUse">
<stop stop-color="#36B059"/>
<stop offset="1" stop-color="#224535"/>
</linearGradient>
<linearGradient id="paint2_linear_0_3084" x1="18.3284" y1="13.9574" x2="65.0666" y2="13.9574" gradientUnits="userSpaceOnUse">
<stop stop-color="#061233"/>
<stop offset="0.0324609" stop-color="#08153D"/>
<stop offset="0.1627" stop-color="#0D1F61"/>
<stop offset="0.3001" stop-color="#11277F"/>
<stop offset="0.4448" stop-color="#152E96"/>
<stop offset="0.6" stop-color="#1732A6"/>
<stop offset="0.773" stop-color="#1935B0"/>
<stop offset="1" stop-color="#1936B3"/>
</linearGradient>
<linearGradient id="paint3_linear_0_3084" x1="33.1953" y1="4.6745" x2="0.398393" y2="63.3637" gradientUnits="userSpaceOnUse">
<stop stop-color="#D92414"/>
<stop offset="0.169" stop-color="#D42414"/>
<stop offset="0.3708" stop-color="#C52414"/>
<stop offset="0.5893" stop-color="#AD2414"/>
<stop offset="0.818" stop-color="#8C2414"/>
<stop offset="1" stop-color="#6C2414"/>
</linearGradient>
<linearGradient id="paint4_linear_0_3084" x1="45.1391" y1="96.228" x2="91.8771" y2="96.228" gradientUnits="userSpaceOnUse">
<stop stop-color="#FF9336"/>
<stop offset="0.3771" stop-color="#FDAF1C"/>
<stop offset="0.7539" stop-color="#FBC407"/>
<stop offset="1" stop-color="#FACC00"/>
</linearGradient>
<linearGradient id="paint5_linear_0_3084" x1="82.776" y1="85.5937" x2="118.603" y2="49.7663" gradientUnits="userSpaceOnUse">
<stop stop-color="#FFE959"/>
<stop offset="1" stop-color="#00733E"/>
</linearGradient>
<linearGradient id="paint6_linear_0_3084" x1="11.5687" y1="40.6701" x2="16.7471" y2="99.014" gradientUnits="userSpaceOnUse">
<stop stop-color="#D92414"/>
<stop offset="0.1521" stop-color="#DC2D12"/>
<stop offset="0.4057" stop-color="#E4470E"/>
<stop offset="0.7275" stop-color="#F27107"/>
<stop offset="1" stop-color="#FF9900"/>
</linearGradient>
<linearGradient id="paint7_linear_0_3084" x1="16.3103" y1="94.8556" x2="52.2912" y2="94.8556" gradientUnits="userSpaceOnUse">
<stop stop-color="#FAB300"/>
<stop offset="0.1795" stop-color="#F3A900"/>
<stop offset="0.483" stop-color="#E08F00"/>
<stop offset="0.8711" stop-color="#C06400"/>
<stop offset="1" stop-color="#B55400"/>
</linearGradient>
</defs>
</svg>
