<svg width="102" height="104" viewBox="0 0 102 104" fill="none" xmlns="http://www.w3.org/2000/svg">
<path d="M99.2294 68.3195L86.8909 46.9903L86.4233 57.7089L76.6028 52.5654L89.0852 74.1823C90.2004 76.0887 89.445 77.7792 89.0852 78.4266C88.7255 79.074 87.6104 80.5487 85.416 80.5487H58.4728V69.1108L40.4507 80.5487L31.0259 86.5554L40.019 92.2744L58.4728 104V92.2744H85.416C91.1716 92.2744 96.3516 89.289 99.2294 84.2894C102.107 79.2898 102.107 73.3191 99.2294 68.3195Z" fill="url(#paint0_linear_0_3026)"/>
<path d="M28.1842 86.4475L37.2492 80.6926C37.3211 80.6566 37.2851 80.5127 37.2132 80.5127H16.6371C14.4068 80.5127 13.3276 79.038 12.9679 78.3906C12.6081 77.7432 11.8527 76.0527 12.9679 74.1463L25.738 52.0259C25.774 51.9899 25.81 51.9539 25.846 51.9899L35.7383 58.2843C35.8103 58.3203 35.8822 58.2843 35.8822 58.2124V34.4374V26.0208C35.8822 25.9489 35.8103 25.9129 35.7383 25.9489L24.1193 31.4161L6.60079 39.6528C6.52884 39.6888 6.52884 39.7607 6.60079 39.7967L15.8097 45.6595C15.8457 45.6955 15.8456 45.7314 15.8456 45.7674L3.00356 67.9958C-0.197979 73.5709 0.0178725 80.5847 3.83094 85.7641C6.81664 89.8285 11.493 92.2024 16.6371 92.2024H36.7456C36.8175 92.2024 36.8535 92.0945 36.7816 92.0226L28.1842 86.5554C28.1122 86.5913 28.1122 86.4834 28.1842 86.4475Z" fill="url(#paint1_linear_0_3026)"/>
<path d="M76.2071 28.5026L64.8039 8.75599C61.9262 3.75641 56.7461 0.771042 50.9906 0.771042C45.235 0.771042 40.055 3.75641 37.1772 8.75599L25.4862 29.0061L37.429 23.3951V31.7037L47.3214 14.5828C48.4365 12.6765 50.2711 12.4607 50.9906 12.4607C51.71 12.4607 53.5446 12.6765 54.6597 14.5828L66.063 34.3294L56.1346 40.0843L75.128 50.0116L84.9484 55.155L85.416 44.4365L86.3154 22.6757L76.2071 28.5026Z" fill="url(#paint2_linear_0_3026)"/>
<defs>
<linearGradient id="paint0_linear_0_3026" x1="31.0211" y1="75.4757" x2="101.381" y2="75.4757" gradientUnits="userSpaceOnUse">
<stop stop-color="#FAB300"/>
<stop offset="0.1795" stop-color="#F3A900"/>
<stop offset="0.483" stop-color="#E08F00"/>
<stop offset="0.8711" stop-color="#C06400"/>
<stop offset="1" stop-color="#B55400"/>
</linearGradient>
<linearGradient id="paint1_linear_0_3026" x1="0.739431" y1="59.098" x2="37.2736" y2="59.098" gradientUnits="userSpaceOnUse">
<stop stop-color="#D92414"/>
<stop offset="0.169" stop-color="#D42414"/>
<stop offset="0.3708" stop-color="#C52414"/>
<stop offset="0.5893" stop-color="#AD2414"/>
<stop offset="0.818" stop-color="#8C2414"/>
<stop offset="1" stop-color="#6C2414"/>
</linearGradient>
<linearGradient id="paint2_linear_0_3026" x1="25.5101" y1="27.9614" x2="86.3256" y2="27.9614" gradientUnits="userSpaceOnUse">
<stop stop-color="#36B059"/>
<stop offset="1" stop-color="#224535"/>
</linearGradient>
</defs>
</svg>
